<?xml version="1.0" encoding="utf-8"?>
<!-- Generator: Adobe Illustrator 14.0.0, SVG Export Plug-In  -->
<!DOCTYPE svg PUBLIC "-//W3C//DTD SVG 1.1//EN" "http://www.w3.org/Graphics/SVG/1.1/DTD/svg11.dtd" [
	<!ENTITY ns_flows "http://ns.adobe.com/Flows/1.0/">
]>
<svg version="1.1"
	 xmlns="http://www.w3.org/2000/svg" xmlns:xlink="http://www.w3.org/1999/xlink" xmlns:a="http://ns.adobe.com/AdobeSVGViewerExtensions/3.0/"
	 x="0px" y="0px" width="300px" height="71px" viewBox="-1.593 89.799 300 71" enable-background="new -1.593 89.799 300 71"
	 xml:space="preserve">
<defs>
</defs>
<text transform="matrix(1 0 0 1 0 128.3394)" display="none" fill="#010101" font-family="'HelveticaNeueLT-Extended'" font-size="149.7185">d</text>
<text transform="matrix(1 0 0 1 79.1113 221.0083)" display="none" fill="#010101" font-family="'HelveticaNeueLT-Extended'" font-size="130.19">W</text>
<text transform="matrix(1 0 0 1 98.4023 128.3081)" display="none" fill="#FAAF3C" font-family="'HelveticaNeueLT-Extended'" font-size="149.7185">o</text>
<line display="none" fill="none" stroke="#010101" stroke-width="2" x1="150.709" y1="86.826" x2="139.434" y2="93.335"/>
<text transform="matrix(1 0 0 1 150.0659 136.4185)" display="none" fill="#010101" font-family="'HelveticaNeueLT-Extended'" font-size="100.6603">d</text>
<text transform="matrix(1 0 0 1 14.0688 212.6616)" display="none" fill="#010101" font-family="'HelveticaNeueLT-Extended'" font-size="92.9172">WHI</text>
<text transform="matrix(1 0 0 1 212.5576 212.9292)" display="none" fill="#3EB44A" font-family="'HelveticaNeueLT-Extended'" font-size="107.1129">T</text>
<text transform="matrix(1 0 0 1 212.5557 135.1753)" display="none" fill="#3EB44A" font-family="'HelveticaNeueLT-Extended'" font-size="100.6603">o</text>
<line display="none" fill="none" stroke="#3EB44A" stroke-width="9.9" x1="202.657" y1="141.382" x2="13.362" y2="141.382"/>
<text transform="matrix(1 0 0 1 71.2749 150.0737)" display="none" fill="#3EB44A" font-family="'HelveticaNeueLT-Extended'" font-size="72">o</text>
<text transform="matrix(1 0 0 1 24.4072 150.0737)" display="none" fill="#010101" font-family="'HelveticaNeueLT-Extended'" font-size="72">d</text>
<text transform="matrix(1 0 0 1 116.2393 150.0737)" display="none" fill="#010101" font-family="'HelveticaNeueLT-Extended'" font-size="72">whit</text>
<circle display="none" fill="#010101" cx="95.907" cy="130.632" r="2.5"/>
<line display="none" fill="none" stroke="#010101" stroke-width="2" x1="95.907" y1="130.632" x2="95.907" y2="119.132"/>
<line display="none" fill="none" stroke="#010101" stroke-width="2" x1="95.907" y1="130.632" x2="88.979" y2="134.632"/>
<path display="none" fill="#EB2627" d="M97.666,146.713c0.061-0.005,0.115-0.018,0.179-0.019c1.646-0.009,3.291-0.11,4.938-0.063
	c0.109,0.003,0.206,0.022,0.306,0.039c0.174-0.499,0.289-1.018,0.289-1.563c0-3.313-3.358-6-7.5-6s-7.5,2.687-7.5,6
	c0,0.566,0.119,1.106,0.302,1.625c0.201-0.063,0.417-0.105,0.666-0.101c1.333,0.025,3.049-0.221,4.348,0.112
	c0.944-0.365,1.925-0.521,2.965-0.424C97.028,146.354,97.37,146.502,97.666,146.713z"/>
<line display="none" fill="none" stroke="#EB2627" x1="95.876" y1="131.167" x2="95.876" y2="141.167"/>
<polygon display="none" fill="none" stroke="#EA262A" stroke-width="1.5" points="87.216,146.167 95.876,131.167 104.537,146.167 
	"/>
<polygon display="none" fill="#EB2627" points="100.207,124.167 95.876,131.667 91.546,124.167 "/>
<polygon display="none" fill="none" stroke="#EA262A" stroke-width="1.5" points="104.537,116.167 95.876,131.167 87.216,116.167 
	"/>
<path display="none" fill-rule="evenodd" clip-rule="evenodd" fill="#6BBE46" d="M91.184,119.271
	c0.033,0.096,0.076,0.218,0.198,0.281c0.082,0.043,0.152,0.039,0.152,0.123c0,0.087,0,0.174,0,0.261c0,0.043,0,0.087,0,0.131
	c0,0.066,0.034,0.043,0.117,0.043c0.095,0,0.061,0.039,0.065,0.095c0.004,0.047,0.007,0.095,0.011,0.142
	c0.009,0.111,0.017,0.222,0.025,0.333c0.03,0.396,0.061,0.791,0.091,1.186c0.007,0.095,0.015,0.189,0.022,0.284
	c0.003,0.047,0.007,0.095,0.011,0.143c0.004,0.056-0.03,0.095,0.065,0.095c0.087,0,0.117-0.022,0.117,0.046c0,0.047,0,0.094,0,0.14
	c0,0.109,0,0.218,0,0.326c0,0.094,0,0.186,0,0.28c0,0.069,0.03,0.046,0.116,0.046c0.097,0,0.059,0.04,0.059,0.096
	c0,0.207,0,0.415,0,0.623c0.058,0,0.117,0,0.175,0c0,0.047,0,0.094,0,0.14c0,0.093,0,0.188,0,0.281c0,0.203,0,0.405,0,0.607
	c0,0.188,0,0.375,0,0.562c0,0.093,0,0.187,0,0.28c0,0.069,0.029,0.046,0.116,0.046c0.102,0,0.058,0.083,0.058,0.141
	c0,0.392,0,0.783,0,1.174c0,0.188,0,0.376,0,0.564c0,0.094,0,0.188,0,0.282c0,0.047,0,0.093,0,0.141c0,0.09-0.016,0.094,0.117,0.094
	c0.095,0,0.058,0.035,0.058,0.09c0,0.044,0,0.089,0,0.134c0,0.093,0.003,0.185,0.008,0.278c0.011,0.206,0.022,0.412,0.033,0.619
	c0.043,0.793,0.085,1.586,0.128,2.378c0.015,0.268-0.022,0.535-0.031,0.802c-0.007,0.236-0.021,0.501,0.106,0.726
	c0.022,0.039,0.049,0.077,0.087,0.11c0.052,0.046,0.059,0.126,0.091,0.183c0.055,0.094,0.153,0.168,0.229,0.253
	c0.039,0.044,0.021,0.062,0.102,0.044c0.052-0.011,0.105-0.02,0.159-0.027c0.102-0.012,0.207-0.019,0.31-0.027
	c0.119-0.011,0.236-0.027,0.35-0.052c0-0.04,0-0.08,0-0.119c0.089-0.006,0.179-0.013,0.269-0.019
	c0.313-0.022,0.627-0.043,0.941-0.065c0.157-0.011,0.313-0.021,0.47-0.032c0.125-0.008,0.208-0.15,0.276-0.221
	c0.035-0.035,0.07-0.072,0.105-0.107c0.052-0.054,0.121-0.036,0.21-0.036c0-0.041,0-0.081,0-0.12c0-0.056-0.039-0.12,0.058-0.12
	c0.078,0,0.116,0.022,0.116-0.04c0-0.053,0-0.107,0-0.16c0-0.076,0.251-0.126,0.35-0.16c0.285-0.205,0.584-0.403,0.94-0.549
	c0.405-0.167,0.863-0.255,1.331-0.289c0,0.04,0,0.079,0,0.12c0.063,0,0.126,0,0.19,0c0.148,0,0.296,0,0.444,0
	c0.097,0,0.064,0.023,0.064,0.08c0,0.066,0.092,0.04,0.175,0.04c0.058,0,0.116,0,0.174,0c0.054,0.049,0.107,0.098,0.161,0.147
	c0.094,0.086,0.188,0.172,0.282,0.258c0.048,0.044,0.055,0.073,0.139,0.073c0.077,0,0.155,0,0.232,0
	c0.091,0,0.076,0.037,0.103,0.089c0.028,0.061,0.058,0.121,0.087,0.18c0.026,0.053,0.027,0.083,0.096,0.114
	c0.07,0.032,0.14,0.064,0.209,0.096c0.052,0.023,0.104,0.048,0.157,0.072c0.097,0.044,0.105,0.047,0.105,0.127
	c0,0.041,0,0.081,0,0.121c0,0.066,0.092,0.04,0.174,0.04c0.083,0.061,0.167,0.153,0.27,0.2c0.017,0.008,0.063-0.017,0.085-0.018
	c0.056-0.003,0.115,0.007,0.168,0.017c0.042,0.008,0.084,0.018,0.125,0.027c0.082,0.021,0.051,0.079,0.051,0.133
	c0.56-0.039,1.12-0.077,1.679-0.116c0.483-0.033,0.978-0.028,1.462-0.034c0.983-0.01,1.969-0.003,2.949,0.056
	c0.212,0.013,0.422,0.028,0.633,0.047c0.099,0.009,0.198,0.019,0.296,0.03c0.047,0.005,0.095,0.01,0.142,0.017
	c0,0.062,0,0.125,0,0.187c0,0.188,0,0.375,0,0.563c0,0.094,0,0.188,0,0.282c0,0.064-0.017,0.049-0.098,0.059
	c-0.067,0.009-0.134,0.016-0.201,0.023c-0.946,0.1-1.909,0.11-2.864,0.108c-0.996-0.001-1.991-0.03-2.988-0.024
	c-0.379,0.002-0.759,0.025-1.138,0.026c-0.322,0.001-0.707,0.008-1-0.1c-0.072-0.027-0.118-0.05-0.2-0.065
	c-0.062-0.012-0.127-0.023-0.185-0.043c-0.089-0.031-0.14-0.104-0.204-0.154c-0.044-0.034-0.083-0.023-0.146-0.023
	c-0.091,0-0.059-0.026-0.059-0.079c0-0.04,0-0.08,0-0.12c0-0.058-0.039-0.059-0.105-0.088c-0.104-0.048-0.209-0.096-0.314-0.144
	c-0.066-0.03-0.105-0.031-0.105-0.088c0-0.053,0-0.106,0-0.16c0-0.076-0.178-0.142-0.263-0.189c-0.104-0.06-0.209-0.12-0.314-0.18
	c-0.105-0.06-0.209-0.12-0.314-0.18c-0.052-0.03-0.104-0.06-0.157-0.09c-0.054,0.01-0.108,0.021-0.163,0.027
	c-0.076,0.009-0.081,0.016-0.134,0.055c-0.068,0.051-0.16,0.057-0.251,0.083c-0.099,0.027-0.195,0.063-0.282,0.107
	c-0.29,0.145-0.452,0.366-0.614,0.578c-0.084,0.11-0.171,0.22-0.275,0.322c-0.04,0.04-0.077,0.026-0.144,0.026
	c-0.084,0-0.084,0.027-0.128,0.072c-0.081,0.084-0.163,0.167-0.244,0.251c-0.061,0.063-0.222,0.036-0.326,0.036
	c-0.091,0-0.059,0.027-0.059,0.08c0,0.064-0.057,0.046-0.137,0.054c-0.298,0.032-0.596,0.063-0.895,0.095
	c-0.276,0.029-0.55,0.058-0.826,0.087c-0.137,0.014-0.275,0.029-0.413,0.043c-0.016,0.067-0.037,0.141-0.094,0.198
	c-0.017,0.017-0.04,0.034-0.069,0.04c-0.03,0.006-0.011,0.117-0.011,0.14c0,0.199,0,0.399,0,0.599c0,0.092,0,0.185,0,0.277
	c0,0.046,0,0.091,0,0.139c0,0.068-0.031,0.045-0.116,0.045c-0.096,0-0.059,0.038-0.059,0.093c0,0.046,0,0.093,0,0.14
	c0,0.107,0,0.216,0,0.324c0,0.186,0,0.372,0,0.557c0,0.093,0,0.185,0,0.279c0,0.069-0.03,0.045-0.116,0.045
	c-0.101,0-0.059,0.082-0.059,0.14c0,0.389,0,0.777,0,1.165c0,0.093,0,0.187,0,0.28c0,0.055,0.038,0.093-0.058,0.093
	c-0.088,0-0.115-0.022-0.12,0.048c-0.014,0.206-0.029,0.411-0.042,0.617c-0.028,0.396-0.056,0.791-0.083,1.187
	c-0.013,0.19-0.026,0.38-0.04,0.57c-0.004,0.055,0.031,0.095-0.065,0.095c-0.061,0-0.103-0.01-0.146,0.021
	c-0.025,0.017-0.051,0.049-0.083,0.062c-0.02,0.008-0.053,0.006-0.075,0.009c-0.036,0.004-0.073,0.011-0.108,0.018
	c-0.081,0.015-0.053,0.039-0.053,0.09c0,0.04,0,0.08,0,0.12c0,0.063-0.045,0.046-0.123,0.056c-0.103,0.012-0.206,0.026-0.309,0.035
	c-0.122,0.011-0.239,0.011-0.36,0c-0.085-0.008-0.169-0.018-0.253-0.028c-0.059-0.007-0.119-0.014-0.178-0.022
	c-0.017-0.048-0.037-0.096-0.064-0.142c-0.043-0.072-0.104-0.136-0.204-0.174c-0.141-0.054-0.087-0.18-0.092-0.28
	c-0.036-0.789-0.072-1.577-0.107-2.367c-0.028-0.614-0.057-1.227-0.057-1.841c0-0.313,0-0.627,0-0.94c0-0.156,0-0.313,0-0.469
	c0-0.079,0-0.157,0-0.235c0-0.031,0-0.063,0-0.094c0-0.07-0.029-0.047-0.116-0.047c-0.062,0.013-0.081-0.003-0.059-0.047
	c0-0.047,0-0.095,0-0.143c0-0.079,0-0.157,0-0.236c0-0.158,0-0.315,0-0.473c0-0.315,0-0.631,0-0.946c0-0.316,0-0.632,0-0.947
	c0-0.158,0-0.315,0-0.473c0-0.079,0-0.158,0-0.237c0-0.031,0-0.062,0-0.094c-0.058,0-0.116,0-0.174,0
	c0.059-0.08,0.116-0.16,0.174-0.24c-0.058,0-0.116,0-0.174,0c-0.002-0.047-0.006-0.094-0.008-0.141
	c-0.005-0.095-0.011-0.189-0.017-0.284c-0.011-0.205-0.022-0.409-0.034-0.613c-0.022-0.394-0.044-0.787-0.066-1.181
	c-0.011-0.188-0.021-0.377-0.032-0.566c-0.005-0.094-0.01-0.189-0.016-0.283c-0.004-0.072-0.043-0.047-0.134-0.047
	c-0.087,0-0.174,0-0.261,0c-0.089,0-0.131-0.025-0.131,0.046c0,0.046,0,0.092,0,0.138c0,0.091,0,0.184,0,0.276
	c0,0.046,0,0.092,0,0.138c-0.058,0-0.117,0-0.175,0c0,0.11,0,0.221,0,0.332c0,0.79,0,1.579,0,2.368c0,0.395,0,0.789,0,1.185
	c0,0.047,0,0.094,0,0.142c0,0.071-0.028,0.048-0.117,0.048c-0.096,0-0.058,0.039-0.058,0.094c0,0.047,0,0.095,0,0.143
	c0,0.205,0,0.409,0,0.614c0,0.189,0,0.379,0,0.568c0,0.094,0,0.189,0,0.283c0,0.056,0.038,0.095-0.058,0.095
	c-0.122,0-0.116-0.004-0.116,0.08c0,0.041,0,0.081,0,0.12c0,0.063-0.047,0.046-0.126,0.056c-0.107,0.013-0.214,0.024-0.323,0.031
	c-0.186,0.014-0.373,0.015-0.561,0.005c-0.203-0.009-0.405-0.028-0.607-0.043c-0.081-0.005-0.131,0.015-0.131-0.049
	c0-0.039,0-0.079,0-0.12c0-0.053,0.019-0.071-0.049-0.102c-0.045-0.021-0.091-0.043-0.132-0.068
	c-0.066-0.042-0.054-0.076-0.067-0.13c-0.037-0.154-0.271-0.197-0.45-0.259c-0.335-0.241-0.681-0.478-0.954-0.756
	c-0.067-0.068-0.13-0.138-0.187-0.209c-0.029-0.037-0.056-0.074-0.082-0.112c-0.065,0-0.131,0-0.197,0c-0.065,0-0.131,0-0.197,0
	c-0.087,0-0.125-0.023-0.138,0.044c-0.016,0.077-0.035,0.154-0.07,0.229c-0.075,0.157-0.274,0.256-0.368,0.407
	c-0.04,0.064-0.04,0.154-0.144,0.167c-0.131,0.014-0.262,0.029-0.393,0.045c-0.131,0.015-0.263,0.03-0.394,0.044
	c-0.065,0.007-0.13,0.015-0.196,0.022c0,0.054,0.035,0.118-0.054,0.128c-0.139,0.016-0.285-0.002-0.394-0.067
	c-0.027-0.016-0.052-0.035-0.072-0.055c-0.021-0.022-0.238-0.006-0.28-0.006c-0.551,0-1.103,0-1.655,0c-0.137,0-0.275,0-0.414,0
	c-0.069,0-0.138,0-0.207,0c-0.104,0-0.07-0.021-0.071-0.082c-0.004-0.166-0.006-0.332,0-0.499c0.012-0.284,0.028-0.588,0.176-0.857
	c0.487,0.13,1.008,0.199,1.531,0.187c0.222-0.005,0.443-0.024,0.661-0.057c0.159-0.024,0.567-0.063,0.627-0.172
	c0.095-0.174,0.19-0.349,0.286-0.523c0.048-0.087,0.096-0.174,0.143-0.262c0.024-0.043,0.047-0.087,0.071-0.13
	c0.09,0,0.175,0.028,0.175-0.044c0-0.09,0-0.18,0-0.27c0-0.068,0.032-0.045,0.116-0.045c0.075,0,0.072-0.012,0.114-0.051
	c0.097-0.091,0.187-0.188,0.311-0.263c0.128-0.079,0.288-0.124,0.451-0.154c0.083-0.016,0.055-0.037,0.055-0.09
	c0-0.066,0.059-0.04,0.14-0.04c0.163,0,0.326,0,0.489,0c0.14,0,0.28,0,0.419,0c0.057,0.061,0.127,0.116,0.212,0.158
	c0.127,0.064,0.292,0.083,0.415,0.149c0.087,0.047,0.097,0.114,0.126,0.184c0.037,0.088,0.074,0.176,0.111,0.265
	c0.036,0.088,0.073,0.176,0.11,0.265c0.019,0.044,0.037,0.089,0.055,0.133c0.029,0.068,0.069,0.033,0.153,0.021
	c0.204-0.029,0.306-0.168,0.356-0.302c0.136-0.358,0.055-0.753,0.038-1.117c-0.011-0.223-0.004-0.447-0.004-0.67
	c0-0.071,0.087-0.043,0.176-0.043c0-0.079,0-0.157,0-0.235c0-0.141,0-0.282,0-0.423c0-0.549,0-1.096,0-1.645
	c0-0.279,0-0.558,0-0.836c0-0.14,0-0.279,0-0.418c0-0.062,0-0.124,0-0.185c0-0.031,0-0.062,0-0.093c0.058,0,0.116,0,0.174,0
	c0.01-0.066-0.08-0.164-0.109-0.225c-0.065-0.137-0.115-0.283-0.086-0.427c0.023-0.12,0.077-0.235,0.097-0.356
	c0.022-0.143,0.028-0.287,0.028-0.43c0-0.578-0.132-1.173,0.013-1.748c0.014-0.057,0.033-0.114,0.057-0.169c0.058,0,0.116,0,0.174,0
	c0-0.047,0-0.095,0-0.143c0-0.204,0-0.41,0-0.615c0-0.189,0-0.378,0-0.567c0-0.094,0-0.189,0-0.283c0-0.047,0-0.095,0-0.142
	c0-0.076,0.082-0.048,0.175-0.048c0-0.383,0-0.768,0-1.152c0-0.09,0.073-0.18,0.119-0.263c0.047-0.087,0.095-0.175,0.143-0.262
	c0.048-0.087,0.096-0.174,0.143-0.261c0.049-0.089,0.069-0.202,0.201-0.243c0.297-0.092,0.583-0.172,0.911-0.197
	c0.112-0.008,0.226-0.013,0.339-0.016c0.085-0.001,0.109,0.027,0.16,0.068C90.975,119.259,91.121,119.259,91.184,119.271"/>
<g id="XMLID_1_" display="none">
	<g display="inline">
		<path fill="#EB2627" d="M87.76,145.355c-0.003,0-0.003,0-0.005,0c-1.128-1.982-1.77-4.277-1.765-6.72
			c0.005-2.467,0.669-4.779,1.827-6.767c2.323,4.038,6.667,6.764,11.656,6.796C97.115,142.678,92.749,145.366,87.76,145.355z"/>
		<path fill="#EB2627" d="M99.532,138.665c-0.019,0-0.041,0-0.06,0c1.177-2.001,1.854-4.332,1.859-6.821
			c0.005-2.445-0.637-4.738-1.765-6.72c5.01,0.013,9.378,2.745,11.707,6.796C108.924,135.963,104.542,138.675,99.532,138.665z"/>
		<path fill="#EB2627" d="M99.561,125.123c-5.013-0.011-9.396,2.701-11.745,6.745c-1.149-1.993-1.802-4.308-1.797-6.775
			c0.005-2.489,0.682-4.819,1.856-6.821c5.013,0.033,9.375,2.783,11.69,6.851C99.563,125.123,99.563,125.123,99.561,125.123z"/>
	</g>
	<g display="inline">
	</g>
</g>
<circle display="none" fill="none" cx="94.712" cy="132.05" r="15.894"/>
<path display="none" fill="#E2462F" d="M73.893,131.209c0-5.76,1.824-10.487,5.472-14.184c3.935-3.983,9.407-5.977,16.416-5.977
	c7.008,0,12.503,1.993,16.488,5.977c3.6,3.696,5.4,8.424,5.4,14.184c0,5.761-1.8,10.488-5.4,14.185
	c-3.984,3.984-9.48,5.976-16.488,5.976c-7.009,0-12.481-1.991-16.416-5.976C75.717,141.698,73.893,136.97,73.893,131.209z"/>
<line display="none" fill="none" stroke="#010101" stroke-width="0.25" x1="114.785" y1="120.238" x2="114.784" y2="120.238"/>
<text transform="matrix(1 0 0 1 21.9072 150.0737)" fill="#010101" font-family="'HelveticaNeueLT-Extended'" font-size="72">d</text>
<text transform="matrix(1 0 0 1 120.4746 150.1323)" font-family="'HelveticaNeueLT-Extended'" font-size="72">whit</text>
<text transform="matrix(1 0 0 1 21.9072 206.4878)" display="none" font-family="'HelveticaNeueLT-Extended'" font-size="72">whit</text>
<rect x="8.74" y="91.132" display="none" fill="#F3F19D" stroke="#010101" stroke-width="0.5" width="277.667" height="66"/>
<line display="none" fill="none" stroke="#B8C56D" stroke-width="0.5" x1="8.74" y1="141.132" x2="286.407" y2="140.799"/>
<text transform="matrix(1 0 0 1 66.4072 141.4648)" display="none" font-family="'HansHand'" font-size="36">DOWHIT</text>
<line display="none" fill="none" stroke="#B8C56D" stroke-width="0.5" x1="8.74" y1="106.175" x2="286.407" y2="105.842"/>
<line display="none" fill="none" stroke="#E27863" stroke-width="0.5" x1="62.407" y1="157.132" x2="62.407" y2="91.132"/>
<line display="none" fill="none" stroke="#E27863" stroke-width="0.5" x1="57.407" y1="157.132" x2="57.407" y2="91.132"/>
<path display="none" fill-rule="evenodd" clip-rule="evenodd" fill="#E86929" d="M110.843,115.938
	c0.332-0.09,0.143,0.018,0.33-0.157c0.359-0.188,0.543-0.345,0.659-0.783c-0.944-0.457-1.512-0.92-1.483-2.347
	c0.165-0.104,0.33-0.208,0.494-0.313c0-0.104,0-0.208,0-0.313c0.385-0.313,0.77-0.625,1.154-0.939c0-0.104,0-0.208,0-0.313
	c0.124-0.158,0.499-0.28,0.66-0.469c0.44,0,0.879,0,1.319,0c0.165,0.208,0.329,0.417,0.494,0.625c0.11,0,0.22,0,0.331,0
	c0.22,0.261,0.44,0.521,0.659,0.783c0.11,0,0.22,0,0.33,0c0.219,0.26,0.439,0.521,0.659,0.782c0.11,0,0.22,0,0.33,0
	c0.275,0.313,0.55,0.625,0.824,0.939c0.11,0,0.22,0,0.33,0c0.219,0.26,0.439,0.521,0.659,0.782c0.11,0,0.22,0,0.329,0
	c0.056,0.104,0.11,0.208,0.166,0.313c0.165,0.104,0.33,0.208,0.495,0.313c0,0.051,0,0.104,0,0.156c0.109,0,0.219,0,0.329,0
	c0.167,0.118,0.297,0.473,0.495,0.626c0,0.365,0,0.73,0,1.095c-0.137,0.334-0.578,0.54-0.824,0.782c0,0.053,0,0.104,0,0.156
	c-0.11,0.052-0.22,0.105-0.33,0.157c0,0.104,0,0.209,0,0.313c-0.439,0.364-0.879,0.73-1.318,1.095
	c-1.338-0.029-1.635-0.631-2.308-1.252c-0.055,0-0.11,0-0.166,0c0,0.052,0,0.104,0,0.157c-0.473,0.373-0.809,1.094-1.318,1.407
	c0.66,1.147,1.318,2.296,1.978,3.442c0,0.157,0,0.313,0,0.47c0.055,0,0.11,0,0.165,0c0,0.104,0,0.208,0,0.313
	c0.055,0,0.109,0,0.165,0c0,0.156,0,0.313,0,0.47c0.055,0,0.11,0,0.165,0c0,0.156,0,0.313,0,0.47c0.056,0,0.11,0,0.165,0
	c0.055,0.365,0.11,0.729,0.165,1.095c0.055,0,0.11,0,0.165,0c0.055,0.521,0.11,1.042,0.165,1.563c0.055,0,0.11,0,0.165,0
	c0,0.365,0,0.73,0,1.096c0.055,0,0.11,0,0.165,0c0,0.886,0,1.773,0,2.659c0,2.578-0.403,4.45-1.154,6.258
	c-0.055,0.313-0.11,0.625-0.165,0.938c-0.055,0-0.11,0-0.165,0c-0.055,0.208-0.109,0.417-0.165,0.626c-0.055,0-0.11,0-0.165,0
	c0,0.156,0,0.313,0,0.469c-0.055,0-0.11,0-0.165,0c-0.055,0.208-0.11,0.417-0.166,0.626c-0.055,0-0.11,0-0.165,0
	c-0.055,0.208-0.11,0.417-0.165,0.625c-0.11,0.052-0.22,0.104-0.33,0.157c-0.055,0.208-0.11,0.416-0.165,0.625
	c-0.11,0.053-0.22,0.104-0.33,0.156c0,0.104,0,0.209,0,0.313c-0.055,0-0.11,0-0.165,0c0,0.104,0,0.208,0,0.313
	c-0.165,0.104-0.33,0.208-0.494,0.313c0,0.104,0,0.208,0,0.313c-0.11,0.052-0.22,0.104-0.331,0.157c0,0.104,0,0.208,0,0.313
	c-0.219,0.156-0.439,0.313-0.659,0.469c0,0.104,0,0.209,0,0.313c-0.549,0.469-1.099,0.938-1.649,1.408
	c-0.274,0.313-0.549,0.625-0.823,0.938c-0.11,0-0.22,0-0.331,0c-0.165,0.208-0.329,0.417-0.494,0.625
	c-0.165,0.052-0.33,0.104-0.494,0.157c-0.055,0.104-0.11,0.209-0.166,0.313c-0.109,0-0.219,0-0.329,0
	c-0.055,0.104-0.11,0.209-0.165,0.313c-0.109,0-0.22,0-0.329,0c-0.056,0.105-0.11,0.209-0.165,0.313
	c-0.166,0.052-0.33,0.104-0.495,0.157c0,0.052,0,0.104,0,0.157c-0.11,0-0.22,0-0.33,0c0,0.052,0,0.104,0,0.156
	c-0.11,0-0.22,0-0.331,0c0,0.052,0,0.104,0,0.157c-0.109,0-0.219,0-0.329,0c0,0.052,0,0.104,0,0.156c-0.11,0-0.22,0-0.33,0
	c0,0.053,0,0.104,0,0.157c-0.109,0-0.22,0-0.33,0c0,0.053,0,0.104,0,0.156c-0.11,0-0.22,0-0.33,0c0,0.052,0,0.105,0,0.157
	c-0.329,0.104-0.659,0.209-0.989,0.313c0,0.052,0,0.104,0,0.157c-0.329,0.052-0.659,0.104-0.988,0.156c0,0.051,0,0.104,0,0.156
	c-0.166,0-0.33,0-0.495,0c0,0.053,0,0.105,0,0.157c-0.11,0-0.22,0-0.33,0c0,0.052,0,0.104,0,0.157c-0.22,0-0.439,0-0.66,0
	c0,0.051,0,0.105,0,0.156c-0.22,0-0.439,0-0.659,0c-1.667,0.526-5.548,1.066-7.747,0.47c-0.385,0-0.77,0-1.154,0
	c-1.539-0.417-3.077-0.834-4.616-1.251c0-0.052,0-0.105,0-0.157c-0.33-0.104-0.659-0.208-0.989-0.313c0-0.052,0-0.104,0-0.157
	c-0.11,0-0.22,0-0.33,0c0-0.052,0-0.104,0-0.156c-0.11,0-0.22,0-0.33,0c0-0.052,0-0.104,0-0.157c-0.109,0-0.22,0-0.329,0
	c0-0.052,0-0.104,0-0.156c-0.11,0-0.22,0-0.33,0c0-0.053,0-0.105,0-0.157c-0.11,0-0.22,0-0.33,0c0-0.052,0-0.104,0-0.156
	c-0.11,0-0.22,0-0.33,0c-0.055-0.105-0.11-0.209-0.165-0.314c-0.11,0-0.219,0-0.33,0c0-0.051,0-0.104,0-0.156
	c-0.165-0.052-0.33-0.104-0.495-0.157c-0.055-0.104-0.11-0.208-0.165-0.313c-0.11,0-0.22,0-0.33,0
	c-0.11-0.156-0.22-0.313-0.33-0.469c-0.11,0-0.22,0-0.33,0c-0.165-0.208-0.33-0.417-0.494-0.625
	c-2.964-2.024-5.062-5.224-6.594-8.604c-0.055-0.313-0.11-0.626-0.165-0.939c-1.281-3.113-1.324-8.312-0.165-11.576
	c0-0.209,0-0.417,0-0.625c0.055,0,0.11,0,0.165,0c0.055-0.313,0.11-0.627,0.165-0.939c0.055,0,0.11,0,0.165,0
	c0-0.104,0-0.209,0-0.313c0.055,0,0.11,0,0.165,0c0-0.157,0-0.313,0-0.47c2.876-6.122,8.589-9.904,16.484-11.271
	c0-0.73,0-2.546,0-3.276c-0.934,0-1.869,0-2.803,0c0-0.052,0-0.104,0-0.157c-0.22-0.052-0.439-0.105-0.659-0.156
	c-0.274-0.365-0.549-0.73-0.824-1.095c0-1.564,0-3.129,0-4.693c0.055,0,0.109,0,0.165,0c0-0.104,0-0.208,0-0.313
	c0.055,0,0.11,0,0.165,0c0.056-0.156,0.11-0.313,0.165-0.469c0.165-0.052,0.33-0.104,0.495-0.157c0-0.052,0-0.104,0-0.157
	c0.11,0,0.22,0,0.33,0c0-0.052,0-0.104,0-0.156c1.264,0,2.528,0,3.792,0c3.313,0,7.451-0.249,10.22,0.313
	c0.055,0.157,0.11,0.313,0.165,0.47c0.11,0.052,0.22,0.104,0.33,0.156c0,0.105,0,0.209,0,0.313c0.055,0,0.109,0,0.165,0
	c0,0.47,0,0.939,0,1.408c0,1.095,0,2.19,0,3.285c-0.055,0-0.11,0-0.165,0c-0.055,0.208-0.11,0.417-0.165,0.625
	c-0.385,0.261-0.77,0.521-1.154,0.783c-0.934,0-1.868,0-2.803,0c0,0.73,0,2.546,0,3.276c3.017,0.45,5.458,0.926,7.583,2.21
	 M109.689,114.843 M109.03,114.373 M108.042,113.904 M82.907,129.86c0,0.626,0,1.252,0,1.878c-0.44,0-0.879,0-1.319,0
	c0.165,1.042-2.558,2.086-2.394,3.128c0.056,0,0.11,0,0.165,0c0.055,0.365,0.11,0.731,0.165,1.095c0.055,0,0.11,0,0.165,0
	c0,0.157,0,0.313,0,0.47c2.563,5.628,7.363,8.283,15.165,8.922c0-0.574,0-1.146,0-1.721c0.714,0,1.429,0,2.143,0
	c0,0.574,0,1.147,0,1.721c7.787-0.631,12.618-3.298,15.164-8.922c0-0.157,0-0.313,0-0.47c0.056,0,0.11,0,0.166,0
	c0.055-0.364,0.109-0.73,0.165-1.095c0.054,0,0.109,0,0.165,0c0.165-1.042-2.846-2.086-2.681-3.128c-0.439,0-0.879,0-1.318,0
	c0-0.626,0-1.252,0-1.878c0.439,0,0.879,0,1.318,0c-0.165-1.042,2.846-2.085,2.681-3.128c-0.495-1.2-0.989-2.399-1.483-3.598
	c-0.11-0.052-0.22-0.104-0.33-0.157c-0.054-0.208-0.11-0.417-0.165-0.625c-0.11-0.053-0.22-0.105-0.33-0.157
	c0-0.104,0-0.208,0-0.313c-0.055,0-0.11,0-0.165,0c-0.056-0.157-0.11-0.313-0.165-0.468c-0.11-0.053-0.22-0.104-0.33-0.157
	c0-0.105,0-0.208,0-0.313c-0.274-0.209-0.549-0.417-0.824-0.625c0-0.104,0-0.209,0-0.313c-0.384-0.313-0.77-0.625-1.154-0.938
	c-0.11-0.157-0.22-0.313-0.33-0.47c-0.11,0-0.22,0-0.33,0c-0.165-0.208-0.33-0.417-0.495-0.625c-0.109,0-0.219,0-0.329,0
	c-0.11-0.157-0.22-0.313-0.33-0.47c-0.109,0-0.22,0-0.33,0c-0.055-0.104-0.11-0.209-0.165-0.313c-0.22-0.052-0.44-0.105-0.66-0.156
	c-0.055-0.105-0.11-0.209-0.165-0.314c-0.33-0.104-0.659-0.208-0.989-0.313c-1.727-0.872-4.13,0.664-6.739,0.662
	c0,0.521,0,1.042,0,1.563c-0.714,0-1.429,0-2.143,0c0-0.521,0-1.042,0-1.563c-2.18,0.002-3.788-1.76-5.294-1.13
	c-0.165,0-0.329,0-0.494,0c0,0.051,0,0.104,0,0.156c-0.33,0.104-0.66,0.209-0.989,0.313c0,0.053,0,0.105,0,0.156
	c-0.22,0.052-0.44,0.105-0.66,0.157c-0.055,0.104-0.109,0.209-0.165,0.314c-0.22,0.051-0.439,0.104-0.659,0.156
	c-0.055,0.104-0.11,0.208-0.165,0.313c-0.11,0-0.22,0-0.33,0c-0.109,0.156-0.22,0.313-0.329,0.47c-0.11,0-0.22,0-0.33,0
	c-0.22,0.261-0.439,0.521-0.659,0.782c-0.11,0-0.22,0-0.33,0c-0.33,0.364-0.66,0.73-0.989,1.095c-0.11,0.052-0.22,0.105-0.33,0.156
	c0,0.104,0,0.209,0,0.313c-0.274,0.208-0.55,0.417-0.824,0.625c0,0.104,0,0.208,0,0.313c-0.11,0.052-0.22,0.104-0.33,0.157
	c0,0.104,0,0.208,0,0.312c-0.11,0.053-0.22,0.104-0.33,0.157c0,0.105,0,0.208,0,0.313c-0.109,0.052-0.219,0.104-0.329,0.157
	c-0.055,0.208-0.11,0.417-0.165,0.625c-0.11,0.053-0.22,0.104-0.33,0.157c0,0.104,0,0.208,0,0.313c-0.055,0-0.11,0-0.165,0
	c0,0.104,0,0.208,0,0.313c-0.055,0-0.109,0-0.165,0c0,0.156,0,0.313,0,0.47c-0.055,0-0.109,0-0.165,0
	c-0.055,0.208-0.11,0.417-0.165,0.625c-0.055,0-0.11,0-0.165,0c0,0.156,0,0.313,0,0.469c-0.055,0-0.11,0-0.165,0
	c0,0.156,0,0.313,0,0.47c-0.055,0-0.11,0-0.165,0c0,0.156,0,0.313,0,0.469c-0.055,0-0.11,0-0.165,0c0,0.157,0,0.313,0,0.47
	c-0.055,0-0.109,0-0.165,0c-0.055,0.521-0.109,1.042-0.165,1.564c-0.055,0-0.11,0-0.165,0c-0.161,0.527,2.864,1.19,2.723,1.564
	C82.028,129.86,82.467,129.86,82.907,129.86z"/>
<circle display="none" fill="#E86929" cx="95.646" cy="130.396" r="1.371"/>
<line display="none" fill="#E86929" stroke="#E86929" stroke-width="0.5" x1="92.476" y1="127.678" x2="106.242" y2="139.482"/>
<path display="none" fill="#007DAD" d="M73.893,131.206c0-5.76,1.824-10.487,5.472-14.184c3.935-3.984,9.407-5.976,16.416-5.976
	c7.008,0,12.503,1.992,16.488,5.976c3.6,3.697,5.4,8.424,5.4,14.184c0,5.76-1.8,10.488-5.4,14.184
	c-3.984,3.985-9.48,5.976-16.488,5.976c-7.009,0-12.481-1.991-16.416-5.976C75.717,141.694,73.893,136.966,73.893,131.206z
	 M110.037,131.206c0-3.888-1.08-7.104-3.24-9.648c-2.497-2.976-6.168-4.464-11.016-4.464c-4.849,0-8.521,1.488-11.016,4.464
	c-2.16,2.545-3.24,5.76-3.24,9.648c0,3.888,1.08,7.104,3.24,9.648c2.495,2.977,6.167,4.464,11.016,4.464
	c4.848,0,8.52-1.487,11.016-4.464C108.957,138.31,110.037,135.094,110.037,131.206z"/>
<polygon display="none" fill-rule="evenodd" clip-rule="evenodd" fill="#FFFFFF" points="108.213,113.479 95.616,130.619 
	95.617,109.347 "/>
<path display="none" fill-rule="evenodd" clip-rule="evenodd" fill="#FFFFFF" d="M99.685,118.277c1.841,0.33,0.362,4.051-0.309,4.93
	c-1.62,2.115,0.025,5.353-0.378,7.971c-0.491,3.189,0.371,5.654-2.138,7.744c-0.535,1.111-0.553,2.584-0.614,3.784
	c-0.109,2.144,1.751,1.724,2.135,3.821c-5.302,0.117-3.477-1.967-3.477-6.301c0-4.2,0.435-8.392,0.435-12.604
	c-0.589-1.295-5.89-11.383-3.912-11.736c1.229,2.486,2.497,5.152,3.26,7.824c0.952-0.344,0.405-1.444,0.869-2.174
	c1.435-0.969,2.976,1.096,1.935,2.512C98.532,122.633,99.663,119.906,99.685,118.277"/>
<path display="none" fill-rule="evenodd" clip-rule="evenodd" fill="#E2462F" d="M99.685,118.277c1.841,0.33,0.362,4.051-0.309,4.93
	c-1.62,2.115,0.025,5.353-0.378,7.971c-0.491,3.189,0.371,5.654-2.138,7.744c-0.535,1.111-0.553,2.584-0.614,3.784
	c-0.109,2.144,1.751,1.724,2.135,3.821c-5.302,0.117-3.477-1.967-3.477-6.301c0-4.2,0.435-8.392,0.435-12.604
	c-0.589-1.295-5.89-11.383-3.912-11.736c1.229,2.486,2.497,5.152,3.26,7.824c0.952-0.344,0.405-1.444,0.869-2.174
	c1.435-0.969,2.976,1.096,1.935,2.512C98.532,122.633,99.662,119.906,99.685,118.277"/>
<rect x="235.653" y="110.716" display="none" fill-rule="evenodd" clip-rule="evenodd" fill="#FFFFFF" width="9.588" height="40"/>
<path display="none" fill-rule="evenodd" clip-rule="evenodd" fill="#F2673A" d="M244.352,114.887
	c1.841,0.403,0.362,4.943-0.31,6.016c-1.619,2.581,0.025,6.533-0.377,9.727c-0.492,3.892,0.371,6.899-2.139,9.45
	c-0.535,1.355-0.553,3.152-0.613,4.618c-0.109,2.615,1.751,2.103,2.135,4.662c-5.302,0.143-3.477-2.4-3.477-7.688
	c0-5.124,0.434-10.239,0.434-15.38c-0.589-1.58-5.889-13.89-3.911-14.321c1.229,3.034,2.497,6.287,3.26,9.548
	c0.952-0.42,0.405-1.762,0.869-2.653c1.435-1.182,2.976,1.338,1.935,3.066C243.198,120.202,244.329,116.875,244.352,114.887"/>
<circle display="none" fill="#FFFFFF" cx="95.781" cy="131.209" r="2"/>
<line display="none" fill="#FFFFFF" stroke="#FFFFFF" x1="91.157" y1="127.245" x2="111.241" y2="144.466"/>
<path display="none" fill="none" stroke="#FFFFFF" stroke-width="0.5" d="M110.761,144.088c-3.618,3.602-8.61,5.403-14.975,5.403
	c-6.366,0-11.335-1.801-14.91-5.403"/>
<path display="none" fill="none" stroke="#FFFFFF" stroke-width="0.5" d="M84.495,122.007 M107.057,140.518
	c-2.731,2.599-6.5,3.898-11.305,3.898c-4.806,0-8.557-1.299-11.256-3.898"/>
<path display="none" fill="none" stroke="#FFFFFF" stroke-width="0.5" d="M103.074,137.24c-1.78,1.693-4.235,2.54-7.366,2.54
	c-3.131,0-5.576-0.847-7.334-2.54"/>
<path display="none" fill-rule="evenodd" clip-rule="evenodd" fill="#FFFFFF" d="M84.228,114.601
	c0.261,0.718,0.836,3.434,1.349,1.35c0.833,0.613,0.193,2.473,0.193,3.28c1.539,0,2.375,4.582,3.667,5.017
	c0.948,1.418,3.933,5.196,5.788,5.403c0.059-0.464-1.562-4.824-0.963-4.824c0-2.576,4.871-2.226,5.209-0.192
	c2.049,0-1.546,5.604-1.544,5.789c1.211-0.06,6.754-3.426,6.754-4.439c0.683-0.337,0.569-1.543,1.543-1.543
	c0.411-0.801,1.348-0.895,2.038-1.422c1.387-1.062,0.508-2.283,0.472-3.595c0.548,0.184,0.752,1.133,1.414,0.908
	c1.048-0.357,0.438-1.679,1.673-1.679c0.086-0.344-0.31,1.042-0.386,0.964c0.577,0,0.678-0.771,1.158-0.771
	c0,1.048-0.174,0.567-0.386,1.352c0.469,0,0.517-0.511,1.158-0.581c0,0.385-0.459,0.499-0.579,0.965
	c1.792-0.443-0.333,1.158-0.772,1.158c-0.414,0.825-3.32,3.686-4.052,4.053c0,0.935-4.92,5.402-5.789,5.402
	c-0.922,1.389-2.316,2.957-2.316,4.632c-0.318,0-1.244,2.68-1.427,3.257c-0.116,0.365-0.165,2.531,0.656,2.531
	c0.257,1.222,0.514,2.444,0.771,3.667c-0.349,0.061-0.67,0.189-0.964,0.386c0,5.731-1.544,10.159-1.544,15.823
	c-0.476,0-1.608,5.403-0.386,5.403c0,1.172,0.386-0.085,0.386,2.314c-1.529,0.768-3.212,1.47-3.377-0.674
	c-0.114-1.48,0.752-2.155,0.967-3.932c0.186-1.533-1.304-3.041-0.87-4.463c1.438,0,0.283-11.49,0.193-12.929
	c-1.115,0-3.224,5.489-3.473,6.755c-0.503,0-0.386,1.194-1.067,1.383c-1.149,0.317-2.04-0.215-3.564-0.033
	c-1.512-3.319,3.239-7.156,3.665-10.806c-1.497-0.884,0.644-4.394,1.737-5.209c0-2.263,0.375-4.193,0.213-6.25
	c-0.126-1.618-2.287-6.1-3.3-6.1C88.473,126.701,79.286,113.827,84.228,114.601"/>
<path display="none" fill-rule="evenodd" clip-rule="evenodd" fill="#FFFFFF" d="M82.987,131.979
	c1.041-3.131,2.608,0.044,4.408,0.394c0.969,0.149,1.944,0.21,2.924,0.185c0,1.886-1.349,1.297-2.964,1.195
	c-2.557-0.163-2.113-1.985-4.093-0.355c-1.692,1.393-3.39-2.373-4.327-3.155c-0.495,0.006-2.895,0.454-2.895,0.965
	c-3.002,0.273-5.65,0.095-8.876-0.192c0.41-1.248,0.643-0.527,0.385-2.316c2.48,0,3.575,1.921,6.948,0.771
	c0.604,0,4.823-1.416,4.823-0.579C81.177,129.266,81.526,131.979,82.987,131.979"/>
<path display="none" fill-rule="evenodd" clip-rule="evenodd" fill="#FFFFFF" d="M152.255,134.067c0,0.58,0,1.159,0,1.738
	c-0.926-0.006-12.542,3.458-12.542,2.315c-1.074,0-9.841-2.093-9.841-2.125c-4.722,0-7.777,0.514-11.813,2.371
	c-3.838,1.766-7.87,2.098-7.87-2.371c-0.715,0-0.591-1.379-2.219-1.253c-1.376,0.106-5.977,1.769-6.465,0.29
	c1.611-0.723,7.797-3.452,8.684-0.772c0.5,0,0.514,2.193,1.736,2.509c2.538,2.871,9.098-1.929,11.579-1.929
	c0-2.18,14.619,1.588,16.208,1.929c0.756,0.213,4.246,0.045,4.246-0.964C146.51,135.157,149.282,134.097,152.255,134.067"/>
<line display="none" fill="none" stroke="#FFFFFF" x1="91.241" y1="123.391" x2="105.907" y2="123.391"/>
<line display="none" fill="none" stroke="#FFFFFF" x1="91.241" y1="128.557" x2="105.907" y2="128.557"/>
<line display="none" fill="none" stroke="#FFFFFF" x1="91.241" y1="133.891" x2="105.907" y2="133.891"/>
<line display="none" fill="none" stroke="#FFFFFF" x1="91.241" y1="138.756" x2="105.907" y2="138.756"/>
<circle display="none" fill-rule="evenodd" clip-rule="evenodd" fill="#FFFFFF" cx="87.241" cy="123.391" r="1.5"/>
<circle display="none" fill-rule="evenodd" clip-rule="evenodd" fill="#FFFFFF" cx="87.241" cy="128.557" r="1.5"/>
<circle display="none" fill-rule="evenodd" clip-rule="evenodd" fill="#FFFFFF" cx="87.241" cy="133.891" r="1.5"/>
<circle display="none" fill-rule="evenodd" clip-rule="evenodd" fill="#FFFFFF" cx="87.241" cy="138.756" r="1.5"/>
<polygon display="none" fill="#FFFFFF" points="102.691,108.69 95.781,131.235 88.871,108.69 "/>
<path display="none" fill-rule="evenodd" clip-rule="evenodd" fill="#E2462F" d="M98.535,102.955c1.841,0.33,0.362,4.051-0.309,4.93
	c-1.62,2.115,0.025,5.353-0.378,7.971c-0.491,3.189,0.371,5.654-2.138,7.744c-0.535,1.111-0.553,2.584-0.614,3.784
	c-0.109,2.144,1.751,1.724,2.135,3.821c-5.302,0.117-3.477-1.967-3.477-6.301c0-4.2,0.435-8.392,0.435-12.604
	c-0.589-1.295-5.89-11.383-3.912-11.736c1.229,2.486,2.497,5.152,3.26,7.824c0.952-0.344,0.405-1.444,0.869-2.174
	c1.435-0.969,2.976,1.096,1.935,2.512C97.382,107.31,98.512,104.583,98.535,102.955"/>
<path fill="none" d="M91.589,117.56c-2.826,0.64-5.11,1.965-6.824,4.009c-2.16,2.545-3.24,5.76-3.24,9.648
	c0,3.888,1.08,7.104,3.24,9.648c2.495,2.977,6.167,4.464,11.016,4.464c4.848,0,8.52-1.487,11.016-4.464
	c2.16-2.544,3.24-5.76,3.24-9.648c0-3.888-1.08-7.104-3.24-9.648c-1.716-2.045-4-3.37-6.827-4.01"/>
<path fill="#007DAD" d="M112.269,117.034c-2.763-2.762-6.269-4.544-10.485-5.391l-1.813,5.917c2.826,0.64,5.111,1.965,6.827,4.01
	c2.16,2.545,3.24,5.76,3.24,9.648c0,3.888-1.08,7.104-3.24,9.648c-2.497,2.977-6.168,4.464-11.016,4.464
	c-4.849,0-8.521-1.487-11.016-4.464c-2.16-2.544-3.24-5.76-3.24-9.648c0-3.888,1.08-7.104,3.24-9.648
	c1.714-2.044,3.999-3.37,6.824-4.009l-1.813-5.916c-4.202,0.848-7.685,2.629-10.411,5.389c-3.648,3.697-5.472,8.424-5.472,14.184
	c0,5.76,1.824,10.488,5.472,14.184c3.935,3.985,9.407,5.976,16.416,5.976c7.008,0,12.503-1.991,16.488-5.976
	c3.6-3.695,5.4-8.424,5.4-14.184C117.669,125.458,115.869,120.73,112.269,117.034z"/>
<line fill="#FFFFFF" x1="99.971" y1="117.56" x2="101.784" y2="111.643"/>
<line fill="#FFFFFF" x1="89.776" y1="111.645" x2="91.589" y2="117.56"/>
<path fill-rule="evenodd" clip-rule="evenodd" fill="#E2462F" d="M98.534,102.952c1.841,0.33,0.362,4.051-0.309,4.93
	c-1.62,2.115,0.025,5.353-0.378,7.971c-0.491,3.189,0.371,5.654-2.138,7.744c-0.535,1.111-0.553,2.584-0.614,3.784
	c-0.109,2.144,1.751,1.724,2.135,3.821c-5.302,0.117-3.477-1.967-3.477-6.301c0-4.2,0.435-8.392,0.435-12.604
	c-0.589-1.295-5.89-11.383-3.912-11.736c1.229,2.486,2.497,5.152,3.26,7.824c0.952-0.344,0.405-1.444,0.869-2.174
	c1.435-0.969,2.976,1.096,1.935,2.512C97.381,107.307,98.511,104.581,98.534,102.952"/>
<polygon display="none" fill="#FFFFFF" points="102.691,108.962 95.781,131.507 88.871,108.962 "/>
<rect x="93.281" y="106.257" display="none" fill="#E2462F" width="5" height="25.25"/>
</svg>
